<?xml version="1.0" encoding="UTF-8"?>
<svg version="1.1" xmlns="http://www.w3.org/2000/svg" width="2339" height="425">
<path d="M0 0 C771.87 0 1543.74 0 2339 0 C2339 140.25 2339 280.5 2339 425 C1567.13 425 795.26 425 0 425 C0 284.75 0 144.5 0 0 Z " fill="#FEFEFE" transform="translate(0,0)"/>
<path d="M0 0 C113.26387196 -0.1613254 113.26387196 -0.1613254 160.67773438 -0.1953125 C170.83841268 -0.20264477 180.99909082 -0.21014126 191.15976865 -0.21810398 C192.53773945 -0.21918336 193.91571026 -0.22025685 195.29368108 -0.22132435 C217.20503481 -0.23834782 239.11634686 -0.26832974 261.02767547 -0.30518888 C284.21591556 -0.34412457 307.40413098 -0.36801305 330.59240609 -0.37635398 C344.46230408 -0.38182057 358.33208238 -0.39903581 372.20194349 -0.43166587 C381.73527034 -0.45294047 391.26853604 -0.45917101 400.80188485 -0.45400551 C406.28795625 -0.45146372 411.77381971 -0.4551368 417.25985336 -0.4768219 C451.77071105 -0.60627604 488.22914305 -0.45609257 520 15 C521.68416016 15.78503906 521.68416016 15.78503906 523.40234375 16.5859375 C553.75981811 31.15488828 576.5680696 54.73531827 587.8125 86.5 C590.24646615 94.2280474 591.70255447 102.01369675 593 110 C593.19078125 110.97839844 593.3815625 111.95679687 593.578125 112.96484375 C594.08490778 116.6108643 594 120.31892751 594 124 C557.7 124 521.4 124 484 124 C483.01 119.05 482.02 114.1 481 109 C474.37891987 96.04571279 464.66290456 88.13845001 451.0625 83.3125 C437.71341601 79.55807013 422.75806627 81.10648405 410.75 87.75 C402.56202728 92.97336191 398.3100773 99.66935471 395.4140625 108.859375 C393.60575226 118.20799774 394.60404938 127.55921302 399 136 C400.54521994 138.17556462 402.18469666 140.03342138 404 142 C404 142.66 404 143.32 404 144 C404.55300781 144.25910156 405.10601562 144.51820313 405.67578125 144.78515625 C408.31548227 146.16489914 410.70498575 147.7904802 413.1875 149.4375 C419.70023186 153.58036194 426.63444859 156.70522608 433.6875 159.8125 C434.74412842 160.28034912 435.80075684 160.74819824 436.8894043 161.23022461 C442.39102264 163.61215132 447.82763528 165.63682792 453.59448242 167.26660156 C456.06120025 168.01865884 458.4042957 168.9223224 460.7890625 169.90234375 C466.88847514 172.40834999 473.12797059 174.4587359 479.375 176.5625 C536.8851993 196.15119174 536.8851993 196.15119174 557 212 C557.84353027 212.66056396 557.84353027 212.66056396 558.70410156 213.33447266 C581.17741724 231.13358631 595.55096918 253.20112004 599 282 C601.22656763 317.63490149 594.03677511 349.73425801 570.28857422 377.31201172 C543.7920738 407.11258832 505.11477048 421.83684367 466 425 C459.42633903 425.32644174 452.84424457 425.26289014 446.26451111 425.24050903 C444.32768163 425.24138321 442.39085238 425.24313806 440.45402437 425.24568737 C435.17926901 425.25012333 429.9045961 425.24220935 424.62985122 425.23213124 C418.92389373 425.22344446 413.2179404 425.22642058 407.51197815 425.22793579 C397.64173734 425.22898135 387.77152311 425.22273923 377.90128899 425.21146011 C363.63082358 425.19516334 349.36037093 425.18999284 335.08989722 425.18748413 C311.93354039 425.18311357 288.77719864 425.16983911 265.62084961 425.15087891 C243.13484773 425.13248892 220.64884967 425.11836591 198.1628418 425.10986328 C196.74708376 425.109322 195.33132573 425.10878059 193.9155677 425.10823905 C182.95312587 425.1040675 171.99068394 425.10016615 161.02824199 425.09632993 C107.35214835 425.07748362 53.67609012 425.03724202 0 425 C0 284.75 0 144.5 0 0 Z " fill="#FEFEFE" transform="translate(0,0)"/>
<path d="M0 0 C1.12277344 0.52335938 2.24554687 1.04671875 3.40234375 1.5859375 C33.75981811 16.15488828 56.5680696 39.73531827 67.8125 71.5 C70.24646615 79.2280474 71.70255447 87.01369675 73 95 C73.19078125 95.97839844 73.3815625 96.95679687 73.578125 97.96484375 C74.08490778 101.6108643 74 105.31892751 74 109 C37.7 109 1.4 109 -36 109 C-36.99 104.05 -37.98 99.1 -39 94 C-45.62108013 81.04571279 -55.33709544 73.13845001 -68.9375 68.3125 C-82.28658399 64.55807013 -97.24193373 66.10648405 -109.25 72.75 C-117.43797272 77.97336191 -121.6899227 84.66935471 -124.5859375 93.859375 C-126.39424774 103.20799774 -125.39595062 112.55921302 -121 121 C-119.45478006 123.17556462 -117.81530334 125.03342138 -116 127 C-116 127.66 -116 128.32 -116 129 C-115.17048828 129.38865234 -115.17048828 129.38865234 -114.32421875 129.78515625 C-111.68451773 131.16489914 -109.29501425 132.7904802 -106.8125 134.4375 C-100.29976814 138.58036194 -93.36555141 141.70522608 -86.3125 144.8125 C-85.25587158 145.28034912 -84.19924316 145.74819824 -83.1105957 146.23022461 C-77.60897736 148.61215132 -72.17236472 150.63682792 -66.40551758 152.26660156 C-63.93879975 153.01865884 -61.5957043 153.9223224 -59.2109375 154.90234375 C-53.11152486 157.40834999 -46.87202941 159.4587359 -40.625 161.5625 C16.8851993 181.15119174 16.8851993 181.15119174 37 197 C37.56235352 197.44037598 38.12470703 197.88075195 38.70410156 198.33447266 C61.17741724 216.13358631 75.55096918 238.20112004 79 267 C81.22656763 302.63490149 74.03677511 334.73425801 50.28857422 362.31201172 C27.88951158 387.50420584 -4.0069169 402.58113157 -37 408 C-38.86591797 408.33644531 -38.86591797 408.33644531 -40.76953125 408.6796875 C-67.61866238 412.71673502 -97.67456895 411.27053388 -124 405 C-125.10939941 404.73896484 -125.10939941 404.73896484 -126.24121094 404.47265625 C-137.230927 401.8528308 -147.68608295 398.67019789 -158 394 C-158.6506543 393.70754395 -159.30130859 393.41508789 -159.97167969 393.11376953 C-174.35959142 386.54567739 -186.5793531 377.947938 -198 367 C-198.81984375 366.24332031 -199.6396875 365.48664063 -200.484375 364.70703125 C-219.96181664 346.16716833 -232.08536741 319.87087805 -234 293 C-234 289.37 -234 285.74 -234 282 C-198.36 282 -162.72 282 -126 282 C-125.01 286.29 -124.02 290.58 -123 295 C-118.69257528 306.96506867 -113.45849366 315.90881308 -102 322 C-87.86485335 328.64441926 -70.67880427 331.16274354 -55.48828125 326.05078125 C-42.2177579 320.53914002 -42.2177579 320.53914002 -32.8125 310.125 C-32.32394531 309.30257813 -31.83539063 308.48015625 -31.33203125 307.6328125 C-26.9180108 298.90832634 -26.547035 288.44753219 -28.6875 278.94921875 C-29.61241832 276.47120841 -30.66473989 274.28124376 -32 272 C-32.40089844 271.30777344 -32.80179688 270.61554688 -33.21484375 269.90234375 C-42.92799277 255.29038914 -62.91030506 248.3640142 -78.81494141 242.76953125 C-81.16613626 241.94149034 -83.51071197 241.09608911 -85.85546875 240.25 C-94.46856652 237.16527044 -103.10275483 234.2971197 -111.89794922 231.77758789 C-139.59654758 223.82468788 -172.32959751 213.69331747 -194 194 C-194.81339844 193.30390625 -195.62679687 192.6078125 -196.46484375 191.890625 C-206.97824109 182.75417492 -215.17129626 173.11338822 -222 161 C-222.39832031 160.33871094 -222.79664063 159.67742187 -223.20703125 158.99609375 C-236.72969525 134.91389929 -236.0708319 99.41425808 -229.17163086 73.48681641 C-224.39683255 56.90602359 -216.33599382 42.93893413 -205 30 C-204.28328125 29.18144531 -203.5665625 28.36289062 -202.828125 27.51953125 C-186.83995547 10.53961436 -164.51826707 -1.27251372 -142.140625 -7.16796875 C-139.4990492 -7.8677892 -136.95880889 -8.68165606 -134.375 -9.5625 C-126.18362404 -12.05256944 -117.47231166 -12.92456208 -109 -14 C-108.24823486 -14.09788818 -107.49646973 -14.19577637 -106.72192383 -14.29663086 C-72.05331138 -18.31517872 -31.61287597 -15.37923696 0 0 Z " fill="#010202" transform="translate(520,15)"/>
<path d="M0 0 C22.66341379 -0.07041209 45.32680928 -0.12314466 67.99031067 -0.15543652 C78.51587606 -0.17083578 89.04137307 -0.19179073 99.56689453 -0.22631836 C108.7522779 -0.2564352 117.93761168 -0.27562527 127.12304306 -0.28226548 C131.976358 -0.28614043 136.82953125 -0.29509794 141.68280029 -0.31719017 C167.24322899 -0.42892356 192.26298495 -0.30528896 217 7 C217.79535156 7.23460937 218.59070313 7.46921875 219.41015625 7.7109375 C221.63085008 8.41657853 223.81023794 9.20340386 226 10 C227.155 10.38542969 228.31 10.77085938 229.5 11.16796875 C244.73655882 16.39372281 257.93200401 24.32295809 270 35 C270.7528125 35.60972656 271.505625 36.21945313 272.28125 36.84765625 C294.7162147 55.45129775 307.68544856 85.9243889 310.484375 114.38305664 C313.69658455 153.1110302 305.83475145 189.30418339 280.81640625 219.6484375 C267.28803048 235.32302618 249.7848516 245.85006438 231 254 C230.08605469 254.40992188 229.17210937 254.81984375 228.23046875 255.2421875 C206.20344662 264.66668453 181.82270297 266.170914 158.20703125 266.09765625 C156.60982295 266.09618267 155.01261416 266.09516453 153.41540527 266.09460449 C147.54776273 266.08939981 141.68013058 266.07543867 135.8125 266.0625 C122.674375 266.041875 109.53625 266.02125 96 266 C96 315.17 96 364.34 96 415 C64.98 415 33.96 415 2 415 C5.37228997 411.62771003 8.42848422 408.77704075 12.125 405.875 C35.24717195 387.02439395 50.83709204 362.07390928 59.25 333.5625 C59.49645264 332.74112549 59.74290527 331.91975098 59.99682617 331.07348633 C63.62178113 318.20633717 64.38318376 305.10472568 64.3125 291.8125 C64.30976578 290.73707443 64.30976578 290.73707443 64.30697632 289.6399231 C64.25695724 277.90368848 63.6542147 266.4679096 61 255 C60.76651855 253.97712891 60.76651855 253.97712891 60.52832031 252.93359375 C56.41183549 235.87606381 47.42989765 220.19446931 36 207 C35.30801514 206.19272461 35.30801514 206.19272461 34.60205078 205.36914062 C9.50616464 176.37247164 -24.00708204 162.57875416 -59 149 C-59 148.67 -59 148.34 -59 148 C-57.83203888 147.99635437 -56.66407776 147.99270874 -55.46072388 147.98895264 C-44.4265651 147.95193025 -33.39268354 147.89407834 -22.35873604 147.81609726 C-16.68673714 147.77667338 -11.01489231 147.74445983 -5.34277344 147.72900391 C0.1363343 147.71380398 5.61501832 147.67929881 11.09393692 147.63169098 C13.1789493 147.61691163 15.26402218 147.60896097 17.34908676 147.60811615 C20.28119253 147.60573438 23.21213872 147.57855734 26.14404297 147.54589844 C27.42259407 147.55344398 27.42259407 147.55344398 28.72697449 147.56114197 C37.33187649 147.41390342 45.11693633 144.6236456 51.46484375 138.7109375 C58.92270146 130.39912662 59.61362939 122.4655987 59.17041016 111.63183594 C56.76921096 74.54741289 42.6330201 42.54565085 17 16 C16.37351562 15.33355469 15.74703125 14.66710937 15.1015625 13.98046875 C11.04246569 9.7593892 6.57406139 6.17788942 1.94140625 2.6015625 C1.30074219 2.07304687 0.66007813 1.54453125 0 1 C0 0.67 0 0.34 0 0 Z " fill="#010202" transform="translate(563,6)"/>
<path d="M0 0 C103.95 0 207.9 0 315 0 C309.41235392 5.58764608 309.41235392 5.58764608 307.01953125 7.7265625 C284.02871913 28.46932066 270.1494379 51.11872768 262 81 C245.17 81 228.34 81 211 81 C211 191.22 211 301.44 211 415 C177.67 415 144.34 415 110 415 C110 304.78 110 194.56 110 81 C73.7 81 37.4 81 0 81 C0 54.27 0 27.54 0 0 Z " fill="#010202" transform="translate(0,6)"/>
<path d="M0 0 C4.4333292 3.99606933 8.68109346 8.02164019 12 13 C12.33 4.75 12.66 -3.5 13 -12 C33.13 -12 53.26 -12 74 -12 C74 53.01 74 118.02 74 185 C53.87 185 33.74 185 13 185 C12.67 176.75 12.34 168.5 12 160 C10.39125 161.835625 8.7825 163.67125 7.125 165.5625 C2.26390712 170.94310452 -2.74101332 175.26868102 -9 179 C-9.7425 179.45890625 -10.485 179.9178125 -11.25 180.390625 C-27.55510785 189.53470576 -49.24345412 190.57829205 -67.25 186.8125 C-91.82236729 179.8150709 -109.82999151 165.0995767 -122.25390625 143.08203125 C-126.97558764 134.32904765 -129.85359427 125.69857404 -132 116 C-132.21269531 115.14664063 -132.42539063 114.29328125 -132.64453125 113.4140625 C-139.67926883 84.56657744 -134.91999565 51.0723868 -120.13671875 25.40625 C-116.94757428 20.16220644 -113.12295415 15.5330526 -109 11 C-108.38769531 10.29488281 -107.77539062 9.58976562 -107.14453125 8.86328125 C-80.1259205 -20.45968862 -31.42324237 -23.32537599 0 0 Z " fill="#020303" transform="translate(1878,106)"/>
<path d="M0 0 C1.06476562 0.51433594 2.12953125 1.02867188 3.2265625 1.55859375 C22.62154554 11.39234979 38.6719548 28.29827231 46 49 C47.39828626 53.2795376 48.70113503 57.58843688 49.94921875 61.9140625 C50.12799561 62.5323291 50.30677246 63.1505957 50.4909668 63.78759766 C53.77357296 78.05473293 52 92.15130816 52 107 C6.79 107 -38.42 107 -85 107 C-82.5842532 120.28660742 -80.09089026 130.59576459 -68.7265625 138.6015625 C-59.11029392 144.21378751 -48.9120826 145.60889196 -37.96484375 143.3828125 C-31.0307698 141.17873274 -25.84714786 137.39425168 -21 132 C-20.59612061 130.97680664 -20.19224121 129.95361328 -19.77612305 128.89941406 C-18.70713806 127.29849243 -18.70713806 127.29849243 -17 126 C-12.22453952 125.11079246 -7.4462333 125.30328576 -2.609375 125.4140625 C-1.18021425 125.42525795 0.24896958 125.4337965 1.67816162 125.43978882 C5.43363403 125.46266095 9.18770644 125.52156629 12.94262695 125.5880127 C16.7766628 125.64947248 20.61092568 125.67681147 24.4453125 125.70703125 C31.96417885 125.77131449 39.48189302 125.87367014 47 126 C46.30632901 131.44346395 45.14940504 135.78560951 42.9375 140.75 C42.62731934 141.44883301 42.31713867 142.14766602 41.99755859 142.86767578 C39.0842024 149.19618941 35.44962325 154.63378769 31 160 C30.31164063 160.85078125 29.62328125 161.7015625 28.9140625 162.578125 C13.81273809 180.35080283 -9.87239856 191.75874017 -33 194 C-62.90027703 195.65997733 -90.5820331 190.81270432 -114 171 C-134.23519613 152.82606488 -144.42985902 127.85248954 -146 101 C-147.47287693 70.96016115 -140.71962725 42.66641644 -120.25390625 19.9140625 C-91.23326548 -11.25209213 -37.80532861 -19.00856159 0 0 Z " fill="#020303" transform="translate(2287,100)"/>
<path d="M0 0 C1.87075195 -0.01836914 1.87075195 -0.01836914 3.77929688 -0.03710938 C27.47866139 -0.07408186 47.88325025 6.21996677 64.9375 23.1875 C65.63617187 23.85136719 66.33484375 24.51523438 67.0546875 25.19921875 C77.91232299 36.28921609 83.9375 51.87109359 83.9375 67.1875 C65.4575 67.1875 46.9775 67.1875 27.9375 67.1875 C26.9475 64.2175 25.9575 61.2475 24.9375 58.1875 C20.32619855 51.64588631 14.89416975 47.70169568 6.9375 46.1875 C-1.58365955 45.6356939 -10.53947206 45.1233851 -17.71875 50.40625 C-20.52553661 53.21303661 -21.41859904 55.85618225 -21.625 59.6875 C-21.31315269 64.22069506 -20.26515352 66.83233917 -17.0625 70.1875 C-9.97150421 74.58315398 -2.33730428 76.73587624 5.6875 78.75 C8.00794338 79.35496696 10.32825734 79.96043056 12.6484375 80.56640625 C13.74510742 80.84887207 14.84177734 81.13133789 15.97167969 81.42236328 C64.400285 93.91620993 64.400285 93.91620993 78.953125 115.125 C86.160993 127.72127418 87.57605819 144.39881355 84.02734375 158.484375 C77.67596143 177.19134029 64.48325939 188.01334718 47.34765625 196.46484375 C40.20608442 199.61378973 32.58323179 200.85374457 24.9375 202.1875 C24.00123779 202.35950928 23.06497559 202.53151855 22.1003418 202.70874023 C-5.42110782 206.87466557 -34.57656585 201.63003851 -57.34423828 185.46289062 C-66.07720339 178.98079206 -72.80437494 171.8002413 -78.0625 162.1875 C-78.44792969 161.54683594 -78.83335938 160.90617188 -79.23046875 160.24609375 C-83.30451841 153.01894818 -86.0625 143.43883573 -86.0625 135.1875 C-65.9325 135.1875 -45.8025 135.1875 -25.0625 135.1875 C-24.4025 137.4975 -23.7425 139.8075 -23.0625 142.1875 C-19.83207886 149.5528602 -14.69107133 153.26222532 -7.3203125 156.328125 C2.24522802 158.85140907 13.43028816 158.62019248 22.08984375 153.671875 C24.94387375 151.37899678 26.68414483 149.46694363 27.40625 145.8203125 C27.4165625 144.99273437 27.426875 144.16515625 27.4375 143.3125 C27.4684375 142.49007812 27.499375 141.66765625 27.53125 140.8203125 C26.68603389 137.07244633 24.79453911 134.64320998 21.9375 132.1875 C19.44933497 130.79341196 16.89338047 129.88402345 14.1875 129 C13.52234375 128.76603516 12.8571875 128.53207031 12.171875 128.29101562 C10.10055017 127.56804359 8.01979138 126.87816574 5.9375 126.1875 C4.86121338 125.81081177 4.86121338 125.81081177 3.76318359 125.42651367 C-1.73681093 123.5217406 -7.26108723 122.14304343 -12.9375 120.875 C-35.49751366 115.61446779 -58.83525389 109.26941883 -73.0625 89.4375 C-80.31202623 76.02451888 -81.18266571 59.32124008 -77.5 44.75 C-74.64193816 36.01365493 -69.98821001 28.28872072 -63.0625 22.1875 C-62.4746875 21.59710938 -61.886875 21.00671875 -61.28125 20.3984375 C-44.80596061 4.47642275 -22.15585962 0.01120681 0 0 Z " fill="#020303" transform="translate(1475.0625,90.8125)"/>
<path d="M0 0 C70.62 0 141.24 0 214 0 C214 15.84 214 31.68 214 48 C192.22 48 170.44 48 148 48 C148 114 148 180 148 248 C127.87 248 107.74 248 87 248 C87 182.33 87 116.66 87 49 C65.22 49 43.44 49 21 49 C18.525 40.585 18.525 40.585 16 32 C14.61324072 28.59435443 13.25614658 25.39058249 11.625 22.125 C11.24287354 21.33617432 10.86074707 20.54734863 10.46704102 19.73461914 C7.73878034 14.20604765 4.71160114 9.01618216 1.21484375 3.93359375 C0 2 0 2 0 0 Z " fill="#020303" transform="translate(879,43)"/>
<path d="M0 0 C20.13 0 40.26 0 61 0 C61 16.17 61 32.34 61 49 C74.2 49 87.4 49 101 49 C101 65.5 101 82 101 99 C87.8 99 74.6 99 61 99 C61.06169252 114.13885691 61.06169252 114.13885691 61.16015625 129.27734375 C61.20848397 135.45296512 61.25253133 141.62840695 61.27099609 147.80419922 C61.28615502 152.78405392 61.32058721 157.76343857 61.36830902 162.74308395 C61.38313066 164.64160448 61.39104146 166.5401921 61.39188385 168.43877029 C61.3942529 171.10112703 61.42132698 173.76218408 61.45410156 176.42431641 C61.4490712 177.20690826 61.44404083 177.98950012 61.43885803 178.79580688 C61.53690409 183.95339132 62.60075553 186.9068083 66 191 C70.32260068 193.82816021 73.81702356 194.39860672 78.9296875 194.51171875 C80.67354736 194.56138794 80.67354736 194.56138794 82.45263672 194.61206055 C83.9120166 194.63695557 85.37139648 194.66185059 86.875 194.6875 C91.53625 194.790625 96.1975 194.89375 101 195 C101 211.83 101 228.66 101 246 C93.760625 246.0825 86.52125 246.165 79.0625 246.25 C76.81574463 246.28641602 74.56898926 246.32283203 72.25415039 246.36035156 C51.5340227 246.55618485 31.67260791 243.45373623 16.1796875 228.3671875 C0.30075906 211.12232973 -0.31814176 190.21565297 -0.1953125 168.04296875 C-0.19157462 166.04372805 -0.18873132 164.04448551 -0.18673706 162.04524231 C-0.17916161 156.82570184 -0.15956658 151.60627563 -0.1373291 146.38677979 C-0.11673832 141.0436762 -0.10770726 135.70055385 -0.09765625 130.35742188 C-0.07631397 119.90489007 -0.04118265 109.45247248 0 99 C-7.92 99 -15.84 99 -24 99 C-24 82.5 -24 66 -24 49 C-16.08 49 -8.16 49 0 49 C0 32.83 0 16.66 0 0 Z " fill="#020303" transform="translate(1614,45)"/>
<path d="M0 0 C20.13 0 40.26 0 61 0 C61 16.17 61 32.34 61 49 C73.87 49 86.74 49 100 49 C100 65.5 100 82 100 99 C87.13 99 74.26 99 61 99 C61.0907876 113.96108257 61.0907876 113.96108257 61.20898438 128.921875 C61.26328473 135.02504132 61.31439579 141.12811625 61.34643555 147.23144531 C61.37247208 152.15288476 61.41287721 157.07401688 61.46318626 161.99526596 C61.47985256 163.87146045 61.49136832 165.7477081 61.49761391 167.62396622 C61.50725753 170.25500851 61.53531977 172.885265 61.56762695 175.51611328 C61.56619186 176.2893544 61.56475677 177.06259552 61.5632782 177.85926819 C61.64613571 182.6401465 62.487536 185.92879293 65 190 C69.3557695 194.07475211 73.73695413 194.13253945 79.515625 194.31640625 C80.64258789 194.35451416 81.76955078 194.39262207 82.93066406 194.43188477 C84.35604492 194.47498779 85.78142578 194.51809082 87.25 194.5625 C91.7875 194.706875 96.325 194.85125 101 195 C101 211.83 101 228.66 101 246 C93.925625 246.020625 86.85125 246.04125 79.5625 246.0625 C77.34732666 246.071604 75.13215332 246.08070801 72.84985352 246.09008789 C71.06787171 246.09301215 69.28588922 246.0955595 67.50390625 246.09765625 C66.14791321 246.1053302 66.14791321 246.1053302 64.76452637 246.11315918 C46.35932807 246.1156521 29.3438327 241.07040105 15.625 228.3125 C10.71161513 223.12308227 7.70333879 217.57423254 5 211 C4.68417969 210.26265625 4.36835937 209.5253125 4.04296875 208.765625 C-1.04567102 195.42987939 -0.27525774 180.30438489 -0.1953125 166.28515625 C-0.19157269 164.33361457 -0.18873031 162.38207098 -0.18673706 160.43052673 C-0.17917674 155.34582138 -0.15959549 150.26123408 -0.1373291 145.17657471 C-0.11670495 139.96734208 -0.10770026 134.75808999 -0.09765625 129.54882812 C-0.07634082 119.36582575 -0.04122263 109.18294126 0 99 C-7.92 99 -15.84 99 -24 99 C-24 82.5 -24 66 -24 49 C-16.08 49 -8.16 49 0 49 C0 32.83 0 16.66 0 0 Z " fill="#020303" transform="translate(2012,45)"/>
<path d="M0 0 C0 21.45 0 42.9 0 65 C-9.9 65.33 -19.8 65.66 -30 66 C-43.51767115 70.15928343 -51.48564115 72.72464354 -58 85 C-61.11981925 92.42814107 -61.15615408 100.22497531 -61.20532227 108.15795898 C-61.21522186 109.15384537 -61.22512146 110.14973175 -61.23532104 111.17579651 C-61.26676733 114.4492052 -61.29162645 117.72262838 -61.31640625 120.99609375 C-61.33699036 123.27295802 -61.35798721 125.54981859 -61.37937927 127.82667542 C-61.43444947 133.80574542 -61.48392489 139.78484905 -61.53222656 145.76397705 C-61.59140718 152.94523529 -61.65755201 160.12643237 -61.72252655 167.30764008 C-61.82034656 178.20505588 -61.90933228 189.10251177 -62 200 C-82.13 200 -102.26 200 -123 200 C-123 134.99 -123 69.98 -123 3 C-102.87 3 -82.74 3 -62 3 C-61.67 12.9 -61.34 22.8 -61 33 C-58.69 30.03 -56.38 27.06 -54 24 C-52.26514917 22.21383668 -50.47911907 20.47452565 -48.625 18.8125 C-47.77164062 18.03519531 -46.91828125 17.25789063 -46.0390625 16.45703125 C-38.8969583 10.68275934 -32.1503297 6.92504882 -23.375 4.1875 C-22.47265625 3.88908203 -21.5703125 3.59066406 -20.640625 3.28320312 C-13.63116622 1.01994493 -7.4168593 0 0 0 Z " fill="#020303" transform="translate(1245,91)"/>
<path d="M0 0 C20.13 0 40.26 0 61 0 C61 65.01 61 130.02 61 197 C40.87 197 20.74 197 0 197 C0 131.99 0 66.98 0 0 Z " fill="#020303" transform="translate(1289,94)"/>
<path d="M0 0 C10.663125 -0.04125 21.32625 -0.0825 32.3125 -0.125 C37.33078003 -0.15231201 37.33078003 -0.15231201 42.45043945 -0.18017578 C45.12971842 -0.18602211 47.80899918 -0.19111734 50.48828125 -0.1953125 C51.50996651 -0.20315262 51.50996651 -0.20315262 52.55229187 -0.21115112 C69.36008398 -0.33348807 86.414743 1.69498151 99 14 C101.23263152 16.53799144 103.15267018 19.17233871 105 22 C106.0828125 23.5778125 106.0828125 23.5778125 107.1875 25.1875 C114.09603793 38.05067732 113.94773224 57.17340157 110 71 C105.06613044 84.06221061 97.29346422 92.52666674 84.8203125 98.52734375 C74.45059251 102.72372434 64.68859715 103.41287798 53.61328125 103.29296875 C52.23450079 103.28854583 50.85571525 103.28549275 49.47692871 103.28381348 C44.42204123 103.26822454 39.36726229 103.22634136 34.3125 103.1875 C17.3278125 103.0946875 17.3278125 103.0946875 0 103 C0 69.01 0 35.02 0 0 Z " fill="#FEFEFE" transform="translate(659,88)"/>
<path d="M0 0 C0.76441406 0.42410156 1.52882813 0.84820312 2.31640625 1.28515625 C13.35926803 7.99308752 19.86071193 17.79378467 23.3125 30.125 C26.10635824 44.8925364 24.14811783 60.78469923 17 74 C11.85806603 81.21496664 5.84171163 85.99111115 -2 90 C-2.63292969 90.3609375 -3.26585937 90.721875 -3.91796875 91.09375 C-12.03146748 94.62532918 -25.22623714 94.48161593 -33.4375 91.375 C-34.98328425 90.63323105 -36.50592221 89.84107176 -38 89 C-38.77859375 88.56429687 -39.5571875 88.12859375 -40.359375 87.6796875 C-50.71566782 81.31995063 -57.56356816 71.78980675 -60.81640625 60.0546875 C-63.71941963 44.82909285 -62.89079914 28.34110691 -54.6875 14.83984375 C-42.63379995 -2.15980388 -19.11745635 -11.097113 0 0 Z " fill="#FDFDFD" transform="translate(1867,148)"/>
<path d="M0 0 C8.83125615 8.7634538 12.97309103 18.50974857 13.22265625 30.83203125 C13.08910831 42.8513455 9.41118233 54.1550544 1.03515625 63.01953125 C-9.29672943 72.20759656 -21.44480562 74.9803496 -34.94921875 74.39453125 C-46.08405987 73.55967906 -55.51512646 67.84334787 -63.0703125 59.76953125 C-71.21712099 49.20821022 -73.37401756 36.06157864 -71.96484375 23.01953125 C-69.45253992 11.91176092 -63.17588141 2.65562592 -53.96484375 -3.98046875 C-51.3698656 -5.51539113 -48.73298859 -6.79154754 -45.96484375 -7.98046875 C-45.13984375 -8.37234375 -44.31484375 -8.76421875 -43.46484375 -9.16796875 C-28.46137435 -14.04409631 -11.92452034 -9.93349335 0 0 Z " fill="#040505" transform="translate(2220.96484375,342.98046875)"/>
<path d="M0 0 C8.12467206 6.24974774 13.08670115 15.6046171 15.52734375 25.3671875 C16.91708497 39.82049623 15.07183418 51.49485502 5.8671875 63.10546875 C-0.58397782 70.07179065 -9.49099783 75.94640214 -19.18383789 76.79418945 C-34.83303454 77.24304654 -46.05737123 75.47769598 -58.16015625 64.6171875 C-66.77174896 55.27065367 -69.78415871 43.8198375 -69.56054688 31.36230469 C-69.02977775 19.19589674 -64.23461988 10.11597737 -55.34765625 1.8046875 C-39.36753987 -11.37189969 -16.98442536 -10.87248929 0 0 Z " fill="#040505" transform="translate(1683.16015625,340.3828125)"/>
<path d="M0 0 C9.25827887 6.79450549 16.49036805 15.81058812 18.55078125 27.421875 C19.33296198 42.88358711 17.25606327 52.9982354 8.23828125 65.671875 C0.3165749 73.77780708 -9.47960064 78.4927166 -20.82788086 78.79296875 C-34.49589667 78.81673663 -44.26917824 76.24865855 -54.63671875 66.921875 C-63.82860879 57.26291738 -66.9947067 45.32862395 -66.71875 32.33984375 C-65.99118058 21.76372602 -61.57538319 13.1836493 -54.44921875 5.421875 C-39.7497389 -7.16124781 -16.79209934 -10.81978969 0 0 Z " fill="#040505" transform="translate(1147.44921875,338.578125)"/>
<path d="M0 0 C24 0 24 0 29.0546875 4.28515625 C30.58056641 7.0625 30.58056641 7.0625 31.875 10.0625 C32.94100761 12.0855325 34.00872475 14.10766509 35.078125 16.12890625 C35.56603516 17.12809082 36.05394531 18.12727539 36.55664062 19.15673828 C38.59434832 23.17080185 41.05393123 26.813717 43.625 30.5 C44.38992794 31.63413273 45.15307366 32.76947043 45.9140625 33.90625 C46.60242187 34.9271875 47.29078125 35.948125 48 37 C49.32 38.98 50.64 40.96 52 43 C52.33 28.81 52.66 14.62 53 0 C60.92 0 68.84 0 77 0 C77.02255088 10.67420075 77.040915 21.3483858 77.05181217 32.02260494 C77.05704103 36.97853922 77.06413874 41.93445642 77.07543945 46.89038086 C77.08626822 51.66898836 77.09227681 56.44757938 77.09487724 61.2261982 C77.09673151 63.05353619 77.10035216 64.88087324 77.10573006 66.70820427 C77.11294036 69.25853329 77.11399095 71.80879337 77.11352539 74.35913086 C77.11712067 75.12229614 77.12071594 75.88546143 77.12442017 76.67175293 C77.11405216 81.88594784 77.11405216 81.88594784 76 83 C68.53216507 84.635842 60.36625407 85.26214664 53 83 C46.07843501 78.08112041 42.23435917 69.94073983 38.1875 62.6875 C37.01615977 60.73299719 35.83716968 58.78305762 34.65039062 56.83789062 C32.06482379 52.56993772 29.55660504 48.26670245 27.11076355 43.9172821 C26.13848419 42.2390367 25.07586599 40.61379899 24 39 C23.67 53.52 23.34 68.04 23 83 C15.41 83 7.82 83 0 83 C0 55.61 0 28.22 0 0 Z " fill="#060606" transform="translate(1195,334)"/>
<path d="M0 0 C23 0 23 0 27.5625 4.125 C28.38698086 5.71006446 29.2041253 7.30026665 29.953125 8.92236328 C31.75546954 12.49931105 34.00056878 15.7962371 36.17749023 19.15380859 C38.50830604 22.75040741 40.77768949 26.38421726 43.04711914 30.01977539 C45.92793605 34.41609143 48.98581838 38.69402626 52 43 C52.33 28.81 52.66 14.62 53 0 C60.59 0 68.18 0 76 0 C76 27.39 76 54.78 76 83 C68.41 83 60.82 83 53 83 C47.18266659 76.6978888 47.18266659 76.6978888 45.6796875 73.265625 C42.88766211 67.48564262 39.34497915 62.26430542 35.78955078 56.93652344 C31.8221972 50.9825021 27.91765511 44.98683915 24 39 C23.67 53.52 23.34 68.04 23 83 C15.41 83 7.82 83 0 83 C0 55.61 0 28.22 0 0 Z " fill="#030404" transform="translate(2263,334)"/>
<path d="M0 0 C6.52859057 -0.10194511 13.05697364 -0.17169296 19.58618164 -0.21972656 C21.80435863 -0.239764 24.02248332 -0.26700173 26.24047852 -0.30175781 C29.44039872 -0.35062253 32.63961674 -0.37304812 35.83984375 -0.390625 C36.82145981 -0.41127014 37.80307587 -0.43191528 38.81443787 -0.45318604 C47.95670753 -0.45612352 54.83301199 2.29141867 61.56640625 8.49609375 C67.09682005 14.297754 68.54456061 21.33190326 68.375 29.12109375 C67.41241512 36.51093807 63.59084908 42.16083836 57.94140625 46.84375 C55.42061822 48.3450644 52.78513425 49.10240776 50 50 C52.08073365 53.61157276 54.16205163 57.22280795 56.24389648 60.83374023 C56.95108596 62.06053706 57.65811957 63.28742375 58.36499023 64.5144043 C59.38483736 66.28458291 60.40525657 68.05443069 61.42578125 69.82421875 C62.03848877 70.88729248 62.65119629 71.95036621 63.2824707 73.0456543 C64.40010968 74.96812044 65.54590675 76.87457988 66.72338867 78.76098633 C68 81 68 81 68 83 C59.42 83 50.84 83 42 83 C40.86820313 80.84597656 39.73640625 78.69195312 38.5703125 76.47265625 C37.47289057 74.39355702 36.37350692 72.31550674 35.27392578 70.23754883 C34.50949505 68.79039341 33.7471155 67.3421526 32.98681641 65.89282227 C31.89499953 63.81239154 30.79591824 61.73594783 29.6953125 59.66015625 C29.3556546 59.00910416 29.0159967 58.35805206 28.66604614 57.68727112 C26.97423433 54.23833935 26.97423433 54.23833935 24 52 C24 62.23 24 72.46 24 83 C20.225625 83.020625 16.45125 83.04125 12.5625 83.0625 C11.37084229 83.071604 10.17918457 83.08070801 8.95141602 83.09008789 C7.55427368 83.09383423 7.55427368 83.09383423 6.12890625 83.09765625 C5.17056885 83.10289307 4.21223145 83.10812988 3.22485352 83.11352539 C1 83 1 83 0 82 C-0.09506052 79.44410112 -0.12556761 76.91532028 -0.11352539 74.35913086 C-0.11367142 73.55919205 -0.11381744 72.75925323 -0.1139679 71.93507385 C-0.11326855 69.27830335 -0.10547518 66.62160207 -0.09765625 63.96484375 C-0.09579215 62.12781309 -0.09436821 60.29078194 -0.09336853 58.45375061 C-0.08954275 53.60890338 -0.07971196 48.76408592 -0.06866455 43.91925049 C-0.05845172 38.97937422 -0.05387119 34.03949315 -0.04882812 29.09960938 C-0.03808974 19.39972647 -0.0210126 9.69986571 0 0 Z " fill="#060707" transform="translate(1520,334)"/>
<path d="M0 0 C10.6425 -0.0928125 10.6425 -0.0928125 21.5 -0.1875 C23.72427734 -0.21481201 25.94855469 -0.24212402 28.24023438 -0.27026367 C30.02473408 -0.27903446 31.80923983 -0.28667699 33.59375 -0.29296875 C34.50286133 -0.30831665 35.41197266 -0.32366455 36.34863281 -0.33947754 C45.8082756 -0.34332084 52.98522829 2.59317517 60 9 C65.69185082 16.1897063 66.77250627 23.05387903 66 32 C64.74986687 39.0689346 61.43987251 44.34160171 56 49 C48.07152542 54.05565705 40.84734584 55.17090009 31.625 55.0625 C30.88894531 55.05798828 30.15289063 55.05347656 29.39453125 55.04882812 C27.59631842 55.03715142 25.79814803 55.01922011 24 55 C24.00785522 56.21901001 24.00785522 56.21901001 24.01586914 57.46264648 C24.03656994 61.12092322 24.04963803 64.77918767 24.0625 68.4375 C24.07087891 69.71689453 24.07925781 70.99628906 24.08789062 72.31445312 C24.09272461 74.13686523 24.09272461 74.13686523 24.09765625 75.99609375 C24.10551147 77.68496704 24.10551147 77.68496704 24.11352539 79.40795898 C24 82 24 82 23 83 C15.41 83 7.82 83 0 83 C0 55.61 0 28.22 0 0 Z " fill="#060707" transform="translate(1427,334)"/>
<path d="M0 0 C6.31549911 5.47404901 10.48668861 10.4225531 12.640625 18.5703125 C12.90496338 19.56305176 13.16930176 20.55579102 13.44165039 21.57861328 C13.64008545 22.3364209 13.83852051 23.09422852 14.04296875 23.875 C10.00205155 24.07906408 5.96246335 24.20288704 1.91796875 24.3125 C0.77585937 24.37115234 -0.36625 24.42980469 -1.54296875 24.49023438 C-9.90558927 24.66040398 -9.90558927 24.66040398 -13.01708984 22.33618164 C-14.61328125 20.4375 -14.61328125 20.4375 -15.86523438 18.53125 C-17.51099999 16.0346324 -19.07825042 15.49188161 -21.95703125 14.875 C-27.33168409 14.35487231 -30.84600863 14.65797174 -35.41796875 17.6015625 C-39.06315151 20.61762742 -41.08889613 24.29903545 -41.95703125 28.875 C-42.57773122 36.56760948 -42.80423479 43.52672698 -37.95703125 49.875 C-33.32529778 54.28079526 -29.45484218 55.23698456 -23.23828125 55.15625 C-19.67131951 54.71648759 -17.64349434 53.18660778 -14.95703125 50.875 C-14.50457031 50.00875 -14.05210938 49.1425 -13.5859375 48.25 C-9.17541227 44.26545418 -3.90953064 45.35634735 1.79296875 45.5625 C3.55447266 45.59633789 3.55447266 45.59633789 5.3515625 45.63085938 C8.24998512 45.6897704 11.14583302 45.77198369 14.04296875 45.875 C12.04200437 54.13393539 9.88105348 59.62078345 4.04296875 65.875 C3.54152344 66.44089844 3.04007813 67.00679688 2.5234375 67.58984375 C-4.90645979 74.98212131 -15.55854076 77.33906819 -25.70703125 77.375 C-37.9635933 77.11323583 -46.56333169 73.54214279 -55.70703125 65.4375 C-65.65314035 54.10998686 -67.85212145 42.8799666 -66.95703125 27.875 C-65.08812349 16.4261005 -59.89301592 7.26251079 -50.95703125 -0.125 C-36.43890875 -10.45016293 -14.44128068 -10.37788202 0 0 Z " fill="#040505" transform="translate(1963.95703125,340.125)"/>
<path d="M0 0 C7.74839462 5.35035132 13.25926206 11.91059956 16 21 C17.15050848 29.70970869 16.73492221 37.48331099 12 45 C11.5875 45.69609375 11.175 46.3921875 10.75 47.109375 C5.91180739 54.42164338 -1.59219674 58.80839251 -10 61 C-20.12294231 62.01364877 -31.0686179 62.39789296 -40 57 C-40.95712891 56.4740625 -40.95712891 56.4740625 -41.93359375 55.9375 C-48.54653963 51.84173997 -53.78601058 43.97735664 -55.625 36.4375 C-56.82516928 25.43594829 -56.03545907 16.88689567 -49 8 C-36.88761321 -4.99742549 -15.90251704 -9.32913957 0 0 Z " fill="#030303" transform="translate(1339,12)"/>
<path d="M0 0 C0.80308594 -0.00322266 1.60617187 -0.00644531 2.43359375 -0.00976562 C10.56808101 0.06274601 18.72950883 1.54238122 25.5 6.3125 C30.99548503 12.11193885 33.60965566 17.30763698 33.5 25.3125 C29.39620302 25.45739234 25.29306033 25.54643542 21.1875 25.625 C20.02025391 25.66689453 18.85300781 25.70878906 17.65039062 25.75195312 C16.53212891 25.76806641 15.41386719 25.78417969 14.26171875 25.80078125 C12.7142395 25.84005737 12.7142395 25.84005737 11.13549805 25.88012695 C8.5 25.3125 8.5 25.3125 6.70239258 22.84448242 C6.30560303 22.00892822 5.90881348 21.17337402 5.5 20.3125 C4.51732141 19.10688816 4.51732141 19.10688816 2.65234375 19.21484375 C0.6015625 19.24739583 -1.44921875 19.27994792 -3.5 19.3125 C-3.5 22.2825 -3.5 25.2525 -3.5 28.3125 C-0.32209631 29.6020841 2.87420793 30.83432684 6.08203125 32.046875 C7.82565065 32.71841303 9.56913646 33.39029802 11.3125 34.0625 C12.17681641 34.38476562 13.04113281 34.70703125 13.93164062 35.0390625 C22.3529023 38.3185878 30.31152835 42.9355567 34.5 51.3125 C35.17803838 59.1486864 35.638075 66.68114697 31.11328125 73.44921875 C25.97543912 79.3832398 19.18327002 83.6169751 11.29760742 84.58203125 C9.02400992 84.67739569 6.77490952 84.67352623 4.5 84.625 C3.74460937 84.62822266 2.98921875 84.63144531 2.2109375 84.63476562 C-6.49996102 84.55244614 -14.401043 82.53502289 -21.5 77.3125 C-27.09082592 71.42365565 -29.5 66.49610898 -29.5 58.3125 C-21.25 58.3125 -13 58.3125 -4.5 58.3125 C-3.84 59.9625 -3.18 61.6125 -2.5 63.3125 C-0.71342243 65.52620051 -0.71342243 65.52620051 1.6640625 65.5078125 C2.47617187 65.48460937 3.28828125 65.46140625 4.125 65.4375 C4.94226563 65.41945313 5.75953125 65.40140625 6.6015625 65.3828125 C7.22804688 65.35960937 7.85453125 65.33640625 8.5 65.3125 C9.4363921 62.01304409 9.4363921 62.01304409 9.5 58.3125 C6.23401849 54.23002312 1.33402298 53.03276843 -3.45703125 51.37109375 C-22.46882084 44.75723627 -22.46882084 44.75723627 -27.9375 35.75 C-30.66288847 29.60312818 -30.57349093 22.3783469 -28.875 15.9453125 C-25.98835982 9.32150423 -20.41587703 4.41304767 -13.828125 1.6328125 C-9.20077177 -0.00116116 -4.86622206 -0.09763688 0 0 Z " fill="#040505" transform="translate(930.5,332.6875)"/>
<path d="M0 0 C17.49 0 34.98 0 53 0 C53 6.27 53 12.54 53 19 C43.43 19 33.86 19 24 19 C24 22.96 24 26.92 24 31 C32.58 31 41.16 31 50 31 C50 37.27 50 43.54 50 50 C41.42 50 32.84 50 24 50 C24 54.62 24 59.24 24 64 C33.57 64 43.14 64 53 64 C53 70.27 53 76.54 53 83 C35.51 83 18.02 83 0 83 C0 55.61 0 28.22 0 0 Z " fill="#080909" transform="translate(1303,334)"/>
<path d="M0 0 C17.49 0 34.98 0 53 0 C53 6.27 53 12.54 53 19 C43.1 19 33.2 19 23 19 C23 22.96 23 26.92 23 31 C25.79791016 30.98259766 25.79791016 30.98259766 28.65234375 30.96484375 C31.08072817 30.95546775 33.50911367 30.94636735 35.9375 30.9375 C37.16919922 30.92912109 38.40089844 30.92074219 39.66992188 30.91210938 C41.4246582 30.90727539 41.4246582 30.90727539 43.21484375 30.90234375 C44.84087524 30.89448853 44.84087524 30.89448853 46.49975586 30.88647461 C49 31 49 31 50 32 C50.07330331 34.86469325 50.09217831 37.69893674 50.0625 40.5625 C50.041875 43.346875 50.02125 46.13125 50 49 C41.09 49 32.18 49 23 49 C23 53.95 23 58.9 23 64 C32.9 64 42.8 64 53 64 C53 70.27 53 76.54 53 83 C35.51 83 18.02 83 0 83 C0 55.61 0 28.22 0 0 Z " fill="#050606" transform="translate(1817,334)"/>
<path d="M0 0 C22.11 0 44.22 0 67 0 C67 5.94 67 11.88 67 18 C59.74 18 52.48 18 45 18 C45 39.45 45 60.9 45 83 C37.41 83 29.82 83 22 83 C22 61.55 22 40.1 22 18 C14.74 18 7.48 18 0 18 C0 12.06 0 6.12 0 0 Z " fill="#020303" transform="translate(2003,334)"/>
<path d="M0 0 C22.11 0 44.22 0 67 0 C67 5.94 67 11.88 67 18 C59.74 18 52.48 18 45 18 C45 39.45 45 60.9 45 83 C37.41 83 29.82 83 22 83 C22 61.55 22 40.1 22 18 C14.74 18 7.48 18 0 18 C0 12.06 0 6.12 0 0 Z " fill="#020303" transform="translate(1723,334)"/>
<path d="M0 0 C22.11 0 44.22 0 67 0 C67 5.94 67 11.88 67 18 C59.74 18 52.48 18 45 18 C45 39.45 45 60.9 45 83 C37.41 83 29.82 83 22 83 C22 61.55 22 40.1 22 18 C14.74 18 7.48 18 0 18 C0 12.06 0 6.12 0 0 Z " fill="#020303" transform="translate(990,334)"/>
<path d="M0 0 C1.546875 0.8353125 1.546875 0.8353125 3.125 1.6875 C9.38136354 6.71979241 15.60869716 12.78261763 17 21 C17 23.64 17 26.28 17 29 C-7.75 29 -32.5 29 -58 29 C-56.15078168 17.9046901 -52.09408019 8.39480271 -42.75 1.6875 C-30.38478906 -5.81338003 -12.81584625 -7.32698779 0 0 Z " fill="#FDFDFD" transform="translate(2260,144)"/>
<path d="M0 0 C7.59 0 15.18 0 23 0 C23 27.39 23 54.78 23 83 C15.41 83 7.82 83 0 83 C0 55.61 0 28.22 0 0 Z " fill="#020303" transform="translate(2097,334)"/>
<path d="M0 0 C3.5 1.75 3.5 1.75 6 4 C6.7425 4.61875 7.485 5.2375 8.25 5.875 C12.8516022 11.46265982 12.47749476 18.46395318 12.3828125 25.35546875 C11.70709989 31.78852862 8.98966999 35.10738708 4.4375 39.4375 C-0.28664243 42.46579643 -5.52019112 42.64785918 -11 42 C-16.3031949 40.28508285 -19.97936384 37.76331086 -23 33 C-26.14656835 26.47885109 -26.20958169 18.42596938 -24.3125 11.484375 C-22.16384835 6.79315222 -19.19115393 3.9427251 -15 1 C-10.09155346 -0.63614885 -5.12214148 -0.49525341 0 0 Z " fill="#FBFBFB" transform="translate(1130,354)"/>
<path d="M0 0 C4.60082174 1.72657769 7.16473953 4.56136599 9.89453125 8.5390625 C12.59689545 15.3376419 13.23720454 22.93042715 11.171875 30.01953125 C8.80027847 35.13718692 5.59347191 37.9968107 0.70703125 40.7890625 C-4.90835794 42.28649962 -10.73499098 42.64387502 -15.98046875 39.8515625 C-20.15921532 36.75929004 -23.18007775 33.38545266 -25.10546875 28.5390625 C-25.763612 21.04306729 -26.37145629 13.00685006 -22.10546875 6.5390625 C-15.44379772 -0.1997112 -9.50434685 -2.08072899 0 0 Z " fill="#FBFBFB" transform="translate(1663.10546875,354.4609375)"/>
<path d="M0 0 C5.49919015 5.49919015 7.07565269 10.19362812 7.375 17.8125 C7.24294113 24.89965946 5.62756044 30.37243956 0.5625 35.4375 C-4.94708344 38.7970021 -9.57846224 39.8669076 -16 39 C-21.30384249 37.27251609 -24.97495581 34.77026199 -28 30 C-31.07719168 23.68895962 -30.71051222 16.82961742 -30 10 C-28.10686432 4.75867395 -24.68498675 1.00319663 -20 -2 C-13.05953769 -4.14549561 -6.3132701 -3.64227121 0 0 Z " fill="#FCFCFC" transform="translate(2203,357)"/>
<path d="M0 0 C2.371875 -0.103125 4.74375 -0.20625 7.1875 -0.3125 C7.92508545 -0.35802002 8.6626709 -0.40354004 9.42260742 -0.45043945 C13.29471918 -0.53148973 14.87613142 -0.09650608 17.953125 2.30078125 C20 5 20 5 20.5625 8.5 C19.89225316 12.6704248 19.08747226 14.13618714 16 17 C12.99011679 17.37774639 10.7166237 17.48153413 7.75 17.3125 C5.1925 17.209375 2.635 17.10625 0 17 C0 11.39 0 5.78 0 0 Z " fill="#F9F9F9" transform="translate(1544,353)"/>
<path d="M0 0 C12.20720943 -0.49322058 12.20720943 -0.49322058 15.89453125 1.80078125 C18 4 18 4 18.5 7.4375 C17.98231768 11.12598652 17.30301883 13.09990222 15 16 C10.09931037 17.63356321 5.14261524 17.05529694 0 17 C0 11.39 0 5.78 0 0 Z " fill="#FDFDFD" transform="translate(1451,353)"/>
</svg>
